<mxfile host="app.diagrams.net" agent="Mozilla/5.0 (Macintosh; Intel Mac OS X 10_15_7) AppleWebKit/537.36 (KHTML, like Gecko) Chrome/131.0.0.0 Safari/537.36" version="26.0.2">
  <diagram name="Page-1" id="42789a77-a242-8287-6e28-9cd8cfd52e62">
    <mxGraphModel dx="855" dy="483" grid="1" gridSize="10" guides="1" tooltips="1" connect="1" arrows="1" fold="1" page="1" pageScale="1" pageWidth="1100" pageHeight="850" background="none" math="0" shadow="0">
      <root>
        <mxCell id="0" />
        <mxCell id="1" parent="0" />
        <mxCell id="2Ren05nBFYA0H8QlB7UZ-4" style="edgeStyle=orthogonalEdgeStyle;rounded=0;orthogonalLoop=1;jettySize=auto;html=1;entryX=0;entryY=0.5;entryDx=0;entryDy=0;" edge="1" parent="1" source="2Ren05nBFYA0H8QlB7UZ-1" target="2Ren05nBFYA0H8QlB7UZ-2">
          <mxGeometry relative="1" as="geometry" />
        </mxCell>
        <mxCell id="2Ren05nBFYA0H8QlB7UZ-1" value="Credit analysis" style="ellipse;whiteSpace=wrap;html=1;" vertex="1" parent="1">
          <mxGeometry x="70" y="230" width="120" height="80" as="geometry" />
        </mxCell>
        <mxCell id="2Ren05nBFYA0H8QlB7UZ-6" style="edgeStyle=orthogonalEdgeStyle;rounded=0;orthogonalLoop=1;jettySize=auto;html=1;entryX=0;entryY=0.5;entryDx=0;entryDy=0;" edge="1" parent="1" source="2Ren05nBFYA0H8QlB7UZ-2" target="2Ren05nBFYA0H8QlB7UZ-5">
          <mxGeometry relative="1" as="geometry" />
        </mxCell>
        <mxCell id="2Ren05nBFYA0H8QlB7UZ-7" value="Yes" style="edgeLabel;html=1;align=center;verticalAlign=middle;resizable=0;points=[];" vertex="1" connectable="0" parent="2Ren05nBFYA0H8QlB7UZ-6">
          <mxGeometry x="-0.0211" y="-3" relative="1" as="geometry">
            <mxPoint as="offset" />
          </mxGeometry>
        </mxCell>
        <mxCell id="2Ren05nBFYA0H8QlB7UZ-19" value="No" style="edgeStyle=orthogonalEdgeStyle;rounded=0;orthogonalLoop=1;jettySize=auto;html=1;entryX=0.5;entryY=0;entryDx=0;entryDy=0;" edge="1" parent="1" source="2Ren05nBFYA0H8QlB7UZ-2" target="2Ren05nBFYA0H8QlB7UZ-10">
          <mxGeometry relative="1" as="geometry" />
        </mxCell>
        <mxCell id="2Ren05nBFYA0H8QlB7UZ-2" value="Existing&lt;br&gt;Credit?" style="rhombus;whiteSpace=wrap;html=1;" vertex="1" parent="1">
          <mxGeometry x="260" y="230" width="80" height="80" as="geometry" />
        </mxCell>
        <mxCell id="2Ren05nBFYA0H8QlB7UZ-9" style="edgeStyle=orthogonalEdgeStyle;rounded=0;orthogonalLoop=1;jettySize=auto;html=1;" edge="1" parent="1" source="2Ren05nBFYA0H8QlB7UZ-5" target="2Ren05nBFYA0H8QlB7UZ-8">
          <mxGeometry relative="1" as="geometry" />
        </mxCell>
        <mxCell id="2Ren05nBFYA0H8QlB7UZ-5" value="Rescoring portfolio/&lt;div&gt;Behaviour analysis&lt;/div&gt;" style="rounded=0;whiteSpace=wrap;html=1;" vertex="1" parent="1">
          <mxGeometry x="470" y="130" width="120" height="60" as="geometry" />
        </mxCell>
        <mxCell id="2Ren05nBFYA0H8QlB7UZ-24" style="edgeStyle=orthogonalEdgeStyle;rounded=0;orthogonalLoop=1;jettySize=auto;html=1;entryX=0;entryY=0.5;entryDx=0;entryDy=0;" edge="1" parent="1" source="2Ren05nBFYA0H8QlB7UZ-8" target="2Ren05nBFYA0H8QlB7UZ-23">
          <mxGeometry relative="1" as="geometry" />
        </mxCell>
        <mxCell id="2Ren05nBFYA0H8QlB7UZ-8" value="Batch Results" style="shape=cylinder3;whiteSpace=wrap;html=1;boundedLbl=1;backgroundOutline=1;size=15;" vertex="1" parent="1">
          <mxGeometry x="700" y="120" width="60" height="80" as="geometry" />
        </mxCell>
        <mxCell id="2Ren05nBFYA0H8QlB7UZ-16" value="New Client" style="edgeStyle=orthogonalEdgeStyle;rounded=0;orthogonalLoop=1;jettySize=auto;html=1;entryX=0;entryY=0.5;entryDx=0;entryDy=0;" edge="1" parent="1" source="2Ren05nBFYA0H8QlB7UZ-10" target="2Ren05nBFYA0H8QlB7UZ-13">
          <mxGeometry relative="1" as="geometry" />
        </mxCell>
        <mxCell id="2Ren05nBFYA0H8QlB7UZ-17" value="Known client" style="edgeStyle=orthogonalEdgeStyle;rounded=0;orthogonalLoop=1;jettySize=auto;html=1;" edge="1" parent="1" source="2Ren05nBFYA0H8QlB7UZ-10" target="2Ren05nBFYA0H8QlB7UZ-12">
          <mxGeometry relative="1" as="geometry">
            <mxPoint as="offset" />
          </mxGeometry>
        </mxCell>
        <mxCell id="2Ren05nBFYA0H8QlB7UZ-10" value="Application source" style="rhombus;whiteSpace=wrap;html=1;" vertex="1" parent="1">
          <mxGeometry x="260" y="390" width="80" height="80" as="geometry" />
        </mxCell>
        <mxCell id="2Ren05nBFYA0H8QlB7UZ-21" style="edgeStyle=orthogonalEdgeStyle;rounded=0;orthogonalLoop=1;jettySize=auto;html=1;" edge="1" parent="1" source="2Ren05nBFYA0H8QlB7UZ-12" target="2Ren05nBFYA0H8QlB7UZ-20">
          <mxGeometry relative="1" as="geometry" />
        </mxCell>
        <mxCell id="2Ren05nBFYA0H8QlB7UZ-12" value="Client revalution" style="rounded=0;whiteSpace=wrap;html=1;" vertex="1" parent="1">
          <mxGeometry x="470" y="330" width="120" height="60" as="geometry" />
        </mxCell>
        <mxCell id="2Ren05nBFYA0H8QlB7UZ-13" value="Client evalution" style="rounded=0;whiteSpace=wrap;html=1;" vertex="1" parent="1">
          <mxGeometry x="470" y="460" width="120" height="60" as="geometry" />
        </mxCell>
        <mxCell id="2Ren05nBFYA0H8QlB7UZ-25" style="edgeStyle=orthogonalEdgeStyle;rounded=0;orthogonalLoop=1;jettySize=auto;html=1;entryX=0;entryY=0.5;entryDx=0;entryDy=0;" edge="1" parent="1" source="2Ren05nBFYA0H8QlB7UZ-20" target="2Ren05nBFYA0H8QlB7UZ-23">
          <mxGeometry relative="1" as="geometry" />
        </mxCell>
        <mxCell id="2Ren05nBFYA0H8QlB7UZ-20" value="Online results" style="shape=cylinder3;whiteSpace=wrap;html=1;boundedLbl=1;backgroundOutline=1;size=15;" vertex="1" parent="1">
          <mxGeometry x="700" y="380" width="60" height="80" as="geometry" />
        </mxCell>
        <mxCell id="2Ren05nBFYA0H8QlB7UZ-22" style="edgeStyle=orthogonalEdgeStyle;rounded=0;orthogonalLoop=1;jettySize=auto;html=1;entryX=0;entryY=0.5;entryDx=0;entryDy=0;entryPerimeter=0;" edge="1" parent="1" source="2Ren05nBFYA0H8QlB7UZ-13" target="2Ren05nBFYA0H8QlB7UZ-20">
          <mxGeometry relative="1" as="geometry" />
        </mxCell>
        <mxCell id="2Ren05nBFYA0H8QlB7UZ-23" value="Consolidate credit portfolio" style="rounded=0;whiteSpace=wrap;html=1;" vertex="1" parent="1">
          <mxGeometry x="810" y="270" width="120" height="60" as="geometry" />
        </mxCell>
        <mxCell id="2Ren05nBFYA0H8QlB7UZ-26" value="Credit&lt;br&gt;Portfolio" style="shape=cylinder3;whiteSpace=wrap;html=1;boundedLbl=1;backgroundOutline=1;size=15;" vertex="1" parent="1">
          <mxGeometry x="1010" y="260" width="60" height="80" as="geometry" />
        </mxCell>
        <mxCell id="2Ren05nBFYA0H8QlB7UZ-27" style="edgeStyle=orthogonalEdgeStyle;rounded=0;orthogonalLoop=1;jettySize=auto;html=1;entryX=0;entryY=0.5;entryDx=0;entryDy=0;entryPerimeter=0;" edge="1" parent="1" source="2Ren05nBFYA0H8QlB7UZ-23" target="2Ren05nBFYA0H8QlB7UZ-26">
          <mxGeometry relative="1" as="geometry" />
        </mxCell>
      </root>
    </mxGraphModel>
  </diagram>
</mxfile>
